<svg xmlns="http://www.w3.org/2000/svg" width="500" height="274.73" viewBox="0 0 500 274.73"><title>screenKings</title><path d="M233.69,368.33q-6.6-7.89-17.43-36.61L205,302.29l56.27-57.69,20.25-4.7,3.06-12H223.8l-2.83,12,13.42,4.94L175.53,307l12.25,33.67Q198.61,371.28,212,382.8t40.49,11.54l3.3-13.65Q240.28,376.22,233.69,368.33Z" transform="translate(-6 -119.61)" fill="#20376a"/><polygon points="179.89 125.7 201.79 120.29 204.85 108.28 133.04 108.28 130.22 120.29 149.29 125.47 116.8 255.9 95.37 261.08 92.31 273.08 163.88 273.08 166.94 261.08 147.64 256.13 179.89 125.7" fill="#20376a"/><path d="M290,264.37a10.88,10.88,0,0,0-15.13,0A10.7,10.7,0,0,0,290,279.5,10.89,10.89,0,0,0,290,264.37Z" transform="translate(-6 -119.61)" fill="#20376a"/><path d="M282.86,300.84c.58-2.33,1.67-5.29,1.15-7.73s-3.06-3.21-5.3-3.31c-4.09-.17-8.37,1.17-12.28,2.2s-7.73,2.15-11.57,3.32v5.27h12.31l-10.8,42.82c-.74,3.12-2.46,8.58,1.44,10.35,1.75.8,3.85.63,5.71.43a53.16,53.16,0,0,0,7.79-1.55q6.4-1.69,13.18-3.83v-5.15h-12.3Z" transform="translate(-6 -119.61)" fill="#20376a"/><path d="M358.32,343.41H346l6-21a114.46,114.46,0,0,0,3.81-16.33c.6-4.46.61-9.46-2.5-13.05-3.89-4.5-11.28-3.71-16.28-1.81-6.55,2.49-11.88,7.56-16.3,12.86l1.51-5.53c.72-3.06,1.73-8-2.51-8.7a11.42,11.42,0,0,0-3.64.18c-2,.32-4,.74-6,1.18q-6.6,1.44-16.51,4.08v5.27h12l-13.43,53.74,16.07-.88,8.91-35.78a65.53,65.53,0,0,1,11.43-12.12c2.49-2,5.8-4.5,9.17-4.46,3.89.05,2.49,5.48,1.94,7.79-.46,1.92-1,4.06-1.69,6.4l-8.41,30.39c-.82,2.63-2.53,7.3,1.28,8.42a9.86,9.86,0,0,0,4.19,0c2.14-.31,4.27-.77,6.39-1.23q6.6-1.44,16.76-4.08Z" transform="translate(-6 -119.61)" fill="#20376a"/><path d="M390.89,293.31A41.25,41.25,0,0,0,377.71,303a47.2,47.2,0,0,0-9,14.69,50.37,50.37,0,0,0-3.32,18.33c0,4.79.61,10.27,4,13.94,4.25,4.59,10.53,5.08,16.29,3.47,6.3-1.75,11.57-6,15.86-10.81l-4,16.19a80.86,80.86,0,0,1-4.46,13.75,35.25,35.25,0,0,1-4.64,7.85,11.44,11.44,0,0,1-4.59,3.58c-2.14.77-4.62,1.24-6.76.25a9.65,9.65,0,0,1-4.35-5,96.19,96.19,0,0,1-4.58-11.93c-4.45,2.1-9.26,5.21-10.88,10.13a10.37,10.37,0,0,0-.05,6.56,9.73,9.73,0,0,0,5.09,5.29c4.68,2.31,10.14,2.81,15.29,2.75a39.79,39.79,0,0,0,12-1.84,31.5,31.5,0,0,0,17.25-14.13,52.31,52.31,0,0,0,5.6-14.16l16.7-66.42C417.76,289,403,287.68,390.89,293.31Zm22.1,3.77-7.91,31.76a59.8,59.8,0,0,1-7.39,9.8,20.38,20.38,0,0,1-6.86,5c-1.87.75-4.34,1.23-6.11,0-2.19-1.58-2.62-4.86-2.79-7.33a42.51,42.51,0,0,1,1.74-14.26c2.32-8.29,6.77-16.29,13.63-21.66A18.32,18.32,0,0,1,413,297.08Z" transform="translate(-6 -119.61)" fill="#20376a"/><path d="M479.84,292.74c-5-2.81-11.35-3.14-17-2.9s-11.23,1.35-15.79,4.6a15.4,15.4,0,0,0-5.59,6.87,16.94,16.94,0,0,0-.65,8.82c1,6.19,5,11.19,10,14.82l3.39,2.64c1.67,1.25,2.89,2.22,3.64,2.89s1.63,1.55,2.64,2.63a10.28,10.28,0,0,1,2.13,3.33,8.6,8.6,0,0,1-1.69,9.23,8.82,8.82,0,0,1-8.62,1.87A10.83,10.83,0,0,1,446,342a79.7,79.7,0,0,1-5-11,36.91,36.91,0,0,0-8,5.27,8.9,8.9,0,0,0-2.7,8.44c.65,3,3.05,5.11,5.65,6.5,5.23,2.82,11.66,3.25,17.48,3.13,6.13-.13,12.42-1.35,17.62-4.76a15.37,15.37,0,0,0,7-10.16,19.38,19.38,0,0,0-3-14,43.67,43.67,0,0,0-10.17-10c-3.11-2.2-6.36-4.79-8.24-8.19a7.76,7.76,0,0,1,.46-8.83c2.5-3,7.21-2.24,9.79.19a16.86,16.86,0,0,1,3.39,4.27c.76,1.43,1.84,3.77,3.27,7a17.4,17.4,0,0,0,8.35-3.26,8,8,0,0,0,3.11-7.54C484.57,296.17,482.3,294.12,479.84,292.74Z" transform="translate(-6 -119.61)" fill="#20376a"/><path d="M106.42,283a71.27,71.27,0,0,0,11.26-15.87,37.59,37.59,0,0,0,4-12.73,20,20,0,0,0,0-5.46,26.15,26.15,0,0,0-1.79-5.78,53.58,53.58,0,0,0-4.94-9.19,43,43,0,0,0-6.44-7.7,13.25,13.25,0,0,0-3.86-2.66A8.83,8.83,0,0,0,101,223c-3.49,0-7,.19-10.48.46q-6,.45-12.53,1c-9.67.85-19.36,1.59-29.08,1.73A98,98,0,0,1,59.51,202a129.52,129.52,0,0,1,15.87-20.92,143,143,0,0,1,19.08-17.13,150.58,150.58,0,0,1,20.18-12.82,109.22,109.22,0,0,1,19.19-8,69.21,69.21,0,0,1,10.45-2.34,44.14,44.14,0,0,1,4.6-.4c1.2,0,2.82-.22,3.86.5a3,3,0,0,1,1.1,1.78q.45,2.53-1.27,6.78a75.8,75.8,0,0,1-4.77,9.49,121.29,121.29,0,0,1-7.18,10.86q-4.14,5.64-8.45,10.92t-8.51,9.6a84.09,84.09,0,0,1-7.53,7q2.19,2.3,4.71,4.71c1.69,1.61,3.37,3.2,5.06,4.77l4.77,4.43c1.5,1.38,2.78,2.56,3.85,3.56a49.84,49.84,0,0,0,8.91-7.42,103.88,103.88,0,0,0,8.8-10.34q4.25-5.7,8-12a132.35,132.35,0,0,0,6.61-12.42A84.16,84.16,0,0,0,171.31,161c1-3.33,2.23-7.47,1.32-10.92q-.28-1.09-.63-2.19t-.69-1.95c-.23-.58-.38-.94-.46-1.1a37.64,37.64,0,0,1-2.53-3.62c-1-1.57-2.18-3.27-3.56-5.11s-2.95-3.74-4.72-5.69a37.84,37.84,0,0,0-6-5.35,30.67,30.67,0,0,0-7.42-3.91c-5.77-2.11-12.23-1.65-18.22-1a86,86,0,0,0-18.74,4.32,124.21,124.21,0,0,0-26.27,12.87,154.64,154.64,0,0,0-33.75,29.75q-4,4.74-7.63,9.8a107.38,107.38,0,0,0-12.13,21.67,60.87,60.87,0,0,0-3.81,13c-.7,4.22-1,8.46.82,12.45a31.55,31.55,0,0,0,3.68,6.15,62.55,62.55,0,0,0,5.17,6q2.88,2.93,6,5.57a9.28,9.28,0,0,0,3.57,2,24.73,24.73,0,0,0,4.59,1c1.61.19,3.22.3,4.83.34a146.17,146.17,0,0,0,16.21-.4c3.53-.31,7-.67,10.35-1.09s6.86-.81,10.46-1.15,7.62-.56,12.07-.64a50.54,50.54,0,0,1-9.66,18.8,71.34,71.34,0,0,1-15.4,14A93.9,93.9,0,0,1,60,284.22,130.16,130.16,0,0,1,40,290.14a122.17,122.17,0,0,1-18.8,2.53A78.49,78.49,0,0,1,6,292.21a25.61,25.61,0,0,0,2.18,3.34c1.08,1.45,2.32,3.06,3.74,4.82s2.95,3.6,4.6,5.52,3.25,3.74,4.83,5.46,3,3.3,4.42,4.71a42.07,42.07,0,0,0,3.34,3.17,79.76,79.76,0,0,0,20.34-2.82,121,121,0,0,0,21-7.7C83.77,302.37,96.36,293.83,106.42,283Z" transform="translate(-6 -119.61)" fill="#20376a"/><path d="M503.88,179.35a22.4,22.4,0,0,0-2-2.12c-.74.61-1.81,1.53-3.22,2.76s-3,2.59-4.73,4.09c-3.55,3-7.18,6-11,8.78a54.39,54.39,0,0,1-4.64,3.13c-.55.32-2.76,1.77-3.45,1.06s.32-3,.5-3.63q.64-2.21,1.66-5.15t2.3-6.3l2.57-6.72c.86-2.23,1.67-4.4,2.44-6.48s1.4-3.89,1.89-5.43q.18-.65.27-1.05c.34-1.56-.67-2.86-1.7-3.91a31.68,31.68,0,0,0-4.23-3.59,34.9,34.9,0,0,0-4.83-2.94,9.82,9.82,0,0,0-3.22-1.17,6,6,0,0,0-3.17.85,25.8,25.8,0,0,0-4.69,3.26q-2.9,2.4-7.08,6.58t-10,10.8c.74-2.14,1.47-4.23,2.21-6.25s1.47-4,2.21-6a50.92,50.92,0,0,0-8.79-6.25q-4.74-2.67-8.6-4.51-2.38,5.34-4.46,11.08t-3.81,11.27c-.81,2.56-1.56,5-2.25,7.43-2.4,2.23-4.79,4.45-7.23,6.64a76.42,76.42,0,0,1-9.56,7.36A54.12,54.12,0,0,1,397,198.2a31.78,31.78,0,0,1-8.82,1.92c-2.15.16-5.45.57-7.27-.91a4.35,4.35,0,0,1-1.22-3.18,27.1,27.1,0,0,1,.25-5q8.1-3.59,14.81-7.12a102.57,102.57,0,0,0,11.5-7,37,37,0,0,0,7.4-6.66,11.19,11.19,0,0,0,2.57-5.5,9.16,9.16,0,0,0-1.38-5.45,23.72,23.72,0,0,0-3.72-5,24.18,24.18,0,0,0-5.1-4.05c-4.39-2.58-9.64-1.64-14.3-.36a44.23,44.23,0,0,0-9.43,3.86,48.22,48.22,0,0,0-16.88,15.36,46.15,46.15,0,0,0-5.47,11.36,37.37,37.37,0,0,0-1.05,3.91c-.44.39-.86.8-1.29,1.19A77.25,77.25,0,0,1,348,193a54.12,54.12,0,0,1-10.35,5.24,31.78,31.78,0,0,1-8.82,1.92c-2.15.16-5.45.57-7.27-.91a4.35,4.35,0,0,1-1.22-3.18,27.11,27.11,0,0,1,.26-5q8.08-3.59,14.8-7.12a101.66,101.66,0,0,0,11.5-7,37,37,0,0,0,7.4-6.66,11.1,11.1,0,0,0,2.57-5.5,9.22,9.22,0,0,0-1.37-5.45,23.78,23.78,0,0,0-3.73-5,24.18,24.18,0,0,0-5.1-4.05c-4.38-2.58-9.64-1.64-14.3-.36a44.23,44.23,0,0,0-9.43,3.86,48.22,48.22,0,0,0-16.88,15.36,46.15,46.15,0,0,0-5.47,11.36,36.26,36.26,0,0,0-1,3.55l0,0q-2.62,2.25-5.47,4.55c-1.9,1.54-3.73,3-5.47,4.23A54.38,54.38,0,0,1,284,196c-.69.41-3.61,2.2-3.58.38a17.53,17.53,0,0,1,1.15-4.88c1.84-5.76,4.05-11.39,6.25-17q1.79-4.59,3-8.18a3.31,3.31,0,0,0-1.57-3.77c-2.2-1.66-4.53-3.28-7-4.88q-3.12-2.12-6.89-4.46c-2.52-1.56-5-3-7.36-4.18-.06-1.41-.12-2.61-.18-3.59s-.13-1.62-.19-1.93a4,4,0,0,0-1.29-1.29,15.86,15.86,0,0,0-2.2-1.33c-.8-.4-1.55-.75-2.26-1.06-.35-.15-.91-.52-1.32-.44s-.91.83-1.16,1.13c-.64.77-1.39,1.76-2.25,3s-1.75,2.59-2.67,4.09-1.78,3-2.57,4.42a40.14,40.14,0,0,0-2,4c-.37.88-1.53,3.44-.23,4.09.8.62,1.72,1.29,2.76,2q1.29,1,3.12,2.25t4.14,2.62c-2.14,2.21-4.34,4.4-6.57,6.58l-4.07,3.94-.12-.13q-4.23,4.05-9,8.1a84.08,84.08,0,0,1-10.07,7.31,59,59,0,0,1-11,5.33,34.49,34.49,0,0,1-8.39,1.9c-2.18.21-5.24.67-7.2-.61-1.42-.93-1.23-2.92-1.14-4.39a36.45,36.45,0,0,1,.87-6,63.54,63.54,0,0,1,2.44-8.27,69.44,69.44,0,0,1,3.54-8,52.66,52.66,0,0,1,4.23-6.94,26.86,26.86,0,0,1,4.41-4.88c1.07-.89,4.14-2.94,5.38-1.29s-.16,4-1,5.38a55.59,55.59,0,0,1-3.09,4.69q-1.69,2.36-3.08,4.33c-.65.94-2.47,3.49-.38,3.87s4.81-.49,6.82-1.16a41,41,0,0,0,6.85-3,32.38,32.38,0,0,0,5.66-3.86,8.4,8.4,0,0,0,2.85-3.82,7.45,7.45,0,0,0-.87-3.17,24.9,24.9,0,0,0-2.26-3.68,41.25,41.25,0,0,0-3.08-3.72c-1.13-1.23-2.25-2.33-3.35-3.32a22.46,22.46,0,0,0-3.09-2.34c-1.9-1.17-3.88-.9-6-.67a35.69,35.69,0,0,0-7.07,1.54,42.76,42.76,0,0,0-10,4.79,48.23,48.23,0,0,0-8.7,7.22,50.23,50.23,0,0,0-6.85,9,45.93,45.93,0,0,0-4.46,10.07,32.83,32.83,0,0,0-1.42,13.84,6.83,6.83,0,0,0,.73,2.3,27.32,27.32,0,0,0,3.45,5.11,28.13,28.13,0,0,0,8.6,7.08c3.07,1.53,6.53,1.09,9.83.75a54.87,54.87,0,0,0,10.17-2,72.91,72.91,0,0,0,14.86-6.35,87.72,87.72,0,0,0,13.47-9.38q5.35-4.5,10.23-9.45l0,0q1.48-1.38,3.31-3t3.68-3.4c1.23-1.16,2.44-2.33,3.64-3.49s2.28-2.27,3.26-3.31l2,1.1a23,23,0,0,0,2.12,1l-1.38,3c-.61,1.35-1.32,3.12-2.12,5.29s-1.65,4.8-2.57,7.87-1.84,6.65-2.76,10.76a5.55,5.55,0,0,0,1.38,3.4,17.25,17.25,0,0,0,3.31,3.17,22.54,22.54,0,0,0,4.05,2.39,8.12,8.12,0,0,0,4.23.93,14.51,14.51,0,0,0,4.5-1.43,54,54,0,0,0,6.76-3.87q3.63-2.39,7.45-5.42c2-1.6,3.95-3.2,5.85-4.8a9.93,9.93,0,0,0,1.74,5.35,31.14,31.14,0,0,0,10,9.93,13.09,13.09,0,0,0,3.95,1.67,16.09,16.09,0,0,0,4.16.1,53.49,53.49,0,0,0,9.51-1.4,60.85,60.85,0,0,0,13-4.87,95.41,95.41,0,0,0,14.3-9c.87-.65,1.75-1.33,2.63-2a10.23,10.23,0,0,0,1.74,5.62,31.14,31.14,0,0,0,10,9.93,13,13,0,0,0,3.95,1.67,16.09,16.09,0,0,0,4.16.1,53.51,53.51,0,0,0,9.5-1.4,60.92,60.92,0,0,0,13-4.87,95.92,95.92,0,0,0,14.3-9c2.12-1.58,4.3-3.34,6.54-5.25l-.15.61q-.92,3.92-1.43,6.48a26.5,26.5,0,0,0-.5,3.13,43.61,43.61,0,0,0,3.72,3.49,52.08,52.08,0,0,0,4.14,3.18,25.53,25.53,0,0,0,4.05,2.3c1.26.55,4.29,1.72,5.29.13a16.31,16.31,0,0,0,1-2,141,141,0,0,1,9-18,127.89,127.89,0,0,1,16.14-21.79q3.27-3.45,5-5.57l.19-.18q-1.67,4.14-3.45,9.06t-3.45,9.93q-1.65,5-3.08,9.79t-2.25,8.56a5.55,5.55,0,0,0,1.38,3.4,16.66,16.66,0,0,0,3.35,3.17,24,24,0,0,0,4.09,2.39,8.14,8.14,0,0,0,4.23.93,14.66,14.66,0,0,0,4.51-1.43,52.24,52.24,0,0,0,6.71-3.87c2.4-1.59,4.86-3.4,7.41-5.42s5-4,7.36-6.07,4.55-4,6.57-5.93,3.71-3.57,5.06-4.92C505.32,181,504.62,180.2,503.88,179.35Zm-118.45-6a57.39,57.39,0,0,1,4.23-7.4,28.84,28.84,0,0,1,4.42-5.2c1.17-1.05,4.13-3.15,5.56-1.33s-.1,5.42-1.06,7.17a26.86,26.86,0,0,1-4.14,5.57,48,48,0,0,1-5.84,5.19c-2.17,1.66-4.4,3.22-6.66,4.69A69.41,69.41,0,0,1,385.43,173.32Zm-59.32,0a57.39,57.39,0,0,1,4.23-7.4,28.84,28.84,0,0,1,4.42-5.2c1.17-1.05,4.13-3.15,5.56-1.33s-.1,5.42-1.06,7.17a27.16,27.16,0,0,1-4.13,5.57,49.55,49.55,0,0,1-5.84,5.19q-3.27,2.49-6.67,4.69A69.41,69.41,0,0,1,326.11,173.32Z" transform="translate(-6 -119.61)" fill="#20376a"/></svg>